<svg viewBox="0 0 240.8 58.4" xmlns="http://www.w3.org/2000/svg" xmlns:xlink="http://www.w3.org/1999/xlink"><linearGradient id="a" gradientUnits="userSpaceOnUse" x2="39.71" y1="29.6" y2="29.6"><stop offset="0" stop-color="#1e7dc0"/><stop offset=".15" stop-color="#2491bb"/><stop offset="1" stop-color="#29a3b7"/></linearGradient><linearGradient id="b" x1="52.09" x2="94.92" xlink:href="#a" y1="29.6" y2="29.6"/><linearGradient id="c" x1="96.06" x2="129.55" xlink:href="#a" y1="37.67" y2="37.67"/><linearGradient id="d" x1="133.03" x2="163.4" xlink:href="#a" y1="37.67" y2="37.67"/><linearGradient id="e" x1="168.44" x2="240.84" xlink:href="#a" y1="28.83" y2="28.83"/><path d="m38.6 51a2.8 2.8 0 0 0 -2.5-.5 37.1 37.1 0 0 1 -9.2 1q-8.2 0-13.2-5.7c-3.3-3.8-5-9.2-5-16.2s1.6-12.4 4.9-16.2 7.7-5.7 13.3-5.7a37.2 37.2 0 0 1 8.8.9 2.7 2.7 0 0 0 3.6-2.6 4.5 4.5 0 0 0 -3.6-4.5 56.9 56.9 0 0 0 -9.6-.7c-8.2 0-14.6 2.5-19.2 7.6s-6.9 12.1-6.9 21.2 2.4 16.3 7.1 21.3 11.1 7.5 19 7.5a62.8 62.8 0 0 0 10-.7 4.8 4.8 0 0 0 2.6-1.6 4.5 4.5 0 0 0 1-2.9 2.7 2.7 0 0 0 -1.1-2.2z" fill="url(#a)"/><path d="m66.9.8a83.3 83.3 0 0 0 -10.4.5 5.1 5.1 0 0 0 -3.2 1.7 4.8 4.8 0 0 0 -1.2 3.3v46.6a4.8 4.8 0 0 0 1.2 3.3 5.1 5.1 0 0 0 3.2 1.7c3.1.3 6.6.5 10.4.5 18.7 0 28-9.8 28-29.6 0-9.3-2.4-16.3-7.1-21s-11.7-7-20.9-7zm15.1 45.4c-3.2 3.6-8.2 5.3-15.1 5.3a24.8 24.8 0 0 1 -5.6-.5.7.7 0 0 1 -.6-.7v-41.4c0-.4.2-.6.6-.8a32.8 32.8 0 0 1 5.6-.4q10 0 15 5.1c3.2 3.4 4.8 8.8 4.8 16s-1.5 13.9-4.7 17.4z" fill="url(#b)"/><path d="m112.4 16.9a46.3 46.3 0 0 0 -10.7 1.4 4.5 4.5 0 0 0 -2.4 1.5 4.9 4.9 0 0 0 -.9 2.8 2.5 2.5 0 0 0 3.3 2.3 39.1 39.1 0 0 1 10.7-1.8c3.4 0 5.7.5 7 1.6s2 3 2 5.7v.8a.6.6 0 0 1 -.7.7h-3.6c-7.1 0-12.3 1.2-15.8 3.7a12.1 12.1 0 0 0 -5.2 10.5 11.8 11.8 0 0 0 3.4 8.9 11.4 11.4 0 0 0 8.6 3.4c6 0 10.4-2.1 13.4-6.4 0-.1.1-.1.2-.1a.1.1 0 0 1 .1.1v1.9a4.2 4.2 0 0 0 1.2 2.6 3.7 3.7 0 0 0 2.7 1.2 3.4 3.4 0 0 0 2.7-1.2 3.3 3.3 0 0 0 1.1-2.6v-20.8c0-6.2-1.2-10.4-3.6-12.7s-6.9-3.5-13.5-3.5zm9 23.1a12.1 12.1 0 0 1 -3.1 8.7 11.1 11.1 0 0 1 -8.2 3.2 5.2 5.2 0 0 1 -4.1-1.9 6.2 6.2 0 0 1 -1.8-4.6 6.5 6.5 0 0 1 3.3-5.8q3.1-2.1 9.6-2.1h3.6c.4 0 .7.2.7.6z" fill="url(#c)"/><path d="m148.2 33.8q-3.9-.9-5.4-2.4a4.6 4.6 0 0 1 -1.6-3.7c0-3.1 2.7-4.6 8.2-4.6a34 34 0 0 1 9.2 1.3 2.8 2.8 0 0 0 2.2-.3 2.2 2.2 0 0 0 1-2 4.3 4.3 0 0 0 -.9-2.6 3.6 3.6 0 0 0 -2.3-1.5 48.6 48.6 0 0 0 -10-1.1c-5.1 0-9 1-11.6 3.1a9.9 9.9 0 0 0 -4 8.4 9.7 9.7 0 0 0 3.3 7.5c2.1 1.9 5.8 3.6 11.1 4.8 2.9.8 5 1.7 6.1 2.7a5.1 5.1 0 0 1 1.7 3.9c0 3.3-2.8 5-8.5 5a29.6 29.6 0 0 1 -9.5-1.6 2.4 2.4 0 0 0 -2 .3 2.2 2.2 0 0 0 -1 1.9 4.1 4.1 0 0 0 .9 2.6 3.6 3.6 0 0 0 2.2 1.6 39.4 39.4 0 0 0 10.1 1.3c5.2 0 9.2-1 11.9-2.9a9.7 9.7 0 0 0 4.1-8.2c0-3.8-1-6.6-3.1-8.5s-6.1-3.6-12.1-5z" fill="url(#d)"/><path d="m239.9 52.2a2.9 2.9 0 0 0 -2.2-.9h-35v-17.5c0-6.1-1.1-10.4-3.3-13s-5.6-3.9-10.3-3.9-8.6 1.9-12.3 5.7h-.2v-18.6a3.6 3.6 0 0 0 -1.2-2.8 4 4 0 0 0 -2.9-1.2 3.8 3.8 0 0 0 -2.9 1.2 3.6 3.6 0 0 0 -1.2 2.8v49.7a3.8 3.8 0 0 0 1.2 2.8 3.8 3.8 0 0 0 2.9 1.2 4 4 0 0 0 2.9-1.2 3.8 3.8 0 0 0 1.2-2.8v-19.9a10 10 0 0 1 3.3-7c2.2-2.2 4.4-3.4 6.8-3.4s5.2.8 6.3 2.4 1.8 4.8 1.8 9.6v18.3a3.7 3.7 0 0 0 1.1 2.8c1.1 1.1 1.4 1 4.1 1h37.7a3.1 3.1 0 0 0 2.2-5.3z" fill="url(#e)"/></svg>