<svg viewBox="0 0 281.2 151.4" xmlns="http://www.w3.org/2000/svg" xmlns:xlink="http://www.w3.org/1999/xlink"><linearGradient id="a" gradientUnits="userSpaceOnUse" x1="227.87" x2="-30.72" y1="147.64" y2=".78"><stop offset="0" stop-color="#1e7dc0"/><stop offset=".15" stop-color="#2491bb"/><stop offset="1" stop-color="#29a3b7"/></linearGradient><path d="m272.9 135.1h-90.9q20.1-19.1 20.1-61.7c0-24.3-5.7-42.7-16.9-54.9s-27.7-18.5-49.4-18.5a201.3 201.3 0 0 0 -24.5 1.4 11.2 11.2 0 0 0 -7.6 4.3 14.1 14.1 0 0 0 -2.9 8.8v120.5h-40c-12.4-.3-20.7-6.9-28.4-16.6s-11.8-24.1-11.8-42.3 3.9-32.3 11.5-42.3 18.2-15 31.4-15c8.3 0 15.3.8 21 2.5a5.9 5.9 0 0 0 5.8-1.2 6.8 6.8 0 0 0 2.7-5.7 12.4 12.4 0 0 0 -2.4-7.5 9.8 9.8 0 0 0 -6.1-4.1 114.5 114.5 0 0 0 -22.8-2q-29.1 0-45.4 19.8t-16.3 55.5q0 36 16.9 55.6c11 13 25.7 19.5 43.9 19.7h212.1a8.2 8.2 0 1 0 0-16.3zm-151.9-113.8a1.9 1.9 0 0 1 1.5-2 70.7 70.7 0 0 1 13.3-1.2c15.9 0 27.7 4.4 35.4 13.3s11.5 22.9 11.5 41.9c0 21.2-3.7 36.4-11.2 45.5s-19.4 13.8-35.7 13.8a70.7 70.7 0 0 1 -13.3-1.2 1.9 1.9 0 0 1 -1.5-2z" fill="url(#a)"/></svg>